G04 #@! TF.GenerationSoftware,KiCad,Pcbnew,(6.0.10-0)*
G04 #@! TF.CreationDate,2023-10-07T14:40:08-04:00*
G04 #@! TF.ProjectId,minibaen r2,6d696e69-6261-4656-9e20-72322e6b6963,rev?*
G04 #@! TF.SameCoordinates,Original*
G04 #@! TF.FileFunction,Soldermask,Top*
G04 #@! TF.FilePolarity,Negative*
%FSLAX46Y46*%
G04 Gerber Fmt 4.6, Leading zero omitted, Abs format (unit mm)*
G04 Created by KiCad (PCBNEW (6.0.10-0)) date 2023-10-07 14:40:08*
%MOMM*%
%LPD*%
G01*
G04 APERTURE LIST*
%ADD10C,3.987800*%
%ADD11C,1.750000*%
%ADD12R,2.000000X2.000000*%
%ADD13C,2.000000*%
%ADD14C,3.048000*%
%ADD15C,0.650000*%
%ADD16O,1.000000X1.600000*%
%ADD17O,1.000000X2.100000*%
G04 APERTURE END LIST*
D10*
X116627750Y-43656218D03*
D11*
X121707750Y-43656218D03*
X111547750Y-43656218D03*
X46987750Y-43656218D03*
D10*
X41907750Y-43656218D03*
D11*
X36827750Y-43656218D03*
X184626250Y-81756250D03*
D10*
X189706250Y-81756250D03*
D11*
X194786250Y-81756250D03*
D12*
X37093750Y-88962500D03*
D13*
X42093750Y-88962500D03*
X39593750Y-88962500D03*
X42093750Y-74462500D03*
X37093750Y-74462500D03*
D11*
X82232500Y-100806218D03*
D10*
X87312500Y-100806218D03*
D11*
X92392500Y-100806218D03*
X49530000Y-100806218D03*
X39370000Y-100806218D03*
D10*
X44450000Y-100806218D03*
D11*
X213836250Y-81756218D03*
D10*
X208756250Y-81756218D03*
D11*
X203676250Y-81756218D03*
X99536250Y-81756218D03*
X89376250Y-81756218D03*
D10*
X94456250Y-81756218D03*
D11*
X70961250Y-62706250D03*
D10*
X65881250Y-62706250D03*
D11*
X60801250Y-62706250D03*
X185261250Y-62706250D03*
D10*
X180181250Y-62706250D03*
D11*
X175101250Y-62706250D03*
D10*
X228707750Y-43656218D03*
D11*
X233787750Y-43656218D03*
X223627750Y-43656218D03*
X159067750Y-43656218D03*
D10*
X153987750Y-43656218D03*
D11*
X148907750Y-43656218D03*
D10*
X135307750Y-43656218D03*
D11*
X130227750Y-43656218D03*
X140387750Y-43656218D03*
X54292500Y-81756218D03*
X44132500Y-81756218D03*
D10*
X49212500Y-81756218D03*
D11*
X55507750Y-43656218D03*
D10*
X60587750Y-43656218D03*
D11*
X65667750Y-43656218D03*
D10*
X142081250Y-62706250D03*
D11*
X147161250Y-62706250D03*
X137001250Y-62706250D03*
X182245000Y-100806250D03*
D10*
X187325000Y-100806250D03*
D11*
X192405000Y-100806250D03*
X61436250Y-81756250D03*
D10*
X56356250Y-81756250D03*
D11*
X51276250Y-81756250D03*
D10*
X265906250Y-100806250D03*
D11*
X260826250Y-100806250D03*
X270986250Y-100806250D03*
X258445000Y-100806218D03*
X268605000Y-100806218D03*
D10*
X263525000Y-100806218D03*
D11*
X197167500Y-100806250D03*
D10*
X192087500Y-100806250D03*
D11*
X187007500Y-100806250D03*
X223361250Y-62706218D03*
X213201250Y-62706218D03*
D10*
X218281250Y-62706218D03*
X151606250Y-81756218D03*
D11*
X156686250Y-81756218D03*
X146526250Y-81756218D03*
X270986250Y-81756250D03*
X260826250Y-81756250D03*
D10*
X265906250Y-81756250D03*
X161131250Y-62706250D03*
D11*
X156051250Y-62706250D03*
X166211250Y-62706250D03*
X242307750Y-43656218D03*
X252467750Y-43656218D03*
D10*
X247387750Y-43656218D03*
X246856250Y-100806250D03*
D11*
X251936250Y-100806250D03*
X241776250Y-100806250D03*
X222726250Y-100806250D03*
X232886250Y-100806250D03*
D10*
X227806250Y-100806250D03*
D11*
X204311250Y-62706250D03*
X194151250Y-62706250D03*
D10*
X199231250Y-62706250D03*
D11*
X109061250Y-62706250D03*
X98901250Y-62706250D03*
D10*
X103981250Y-62706250D03*
X113506250Y-81756218D03*
D11*
X108426250Y-81756218D03*
X118586250Y-81756218D03*
D10*
X65881250Y-100806218D03*
D11*
X60801250Y-100806218D03*
X70961250Y-100806218D03*
X196427750Y-43656218D03*
D10*
X191347750Y-43656218D03*
D11*
X186267750Y-43656218D03*
D10*
X242093750Y-100806250D03*
D11*
X237013750Y-100806250D03*
X247173750Y-100806250D03*
X213836250Y-100806250D03*
X203676250Y-100806250D03*
D10*
X208756250Y-100806250D03*
X210027750Y-43656218D03*
D11*
X215107750Y-43656218D03*
X204947750Y-43656218D03*
D10*
X153987500Y-100806250D03*
D14*
X165893750Y-107791250D03*
X142081250Y-107791250D03*
D11*
X159067500Y-100806250D03*
D10*
X165893750Y-92551250D03*
X142081250Y-92551250D03*
D11*
X148907500Y-100806250D03*
X177747750Y-43656218D03*
X167587750Y-43656218D03*
D10*
X172667750Y-43656218D03*
D11*
X74187750Y-43656218D03*
X84347750Y-43656218D03*
D10*
X79267750Y-43656218D03*
D11*
X127476250Y-81756218D03*
X137636250Y-81756218D03*
D10*
X132556250Y-81756218D03*
D11*
X128111250Y-62706250D03*
D10*
X123031250Y-62706250D03*
D11*
X117951250Y-62706250D03*
X92867750Y-43656218D03*
D10*
X97947750Y-43656218D03*
D11*
X103027750Y-43656218D03*
X70326250Y-81756218D03*
X80486250Y-81756218D03*
D10*
X75406250Y-81756218D03*
D11*
X241776250Y-81756250D03*
X251936250Y-81756250D03*
D10*
X246856250Y-81756250D03*
D11*
X266223750Y-62706218D03*
X256063750Y-62706218D03*
D10*
X261143750Y-62706218D03*
D11*
X232251250Y-62706250D03*
X242411250Y-62706250D03*
D10*
X237331250Y-62706250D03*
D11*
X79851250Y-62706218D03*
X90011250Y-62706218D03*
D10*
X84931250Y-62706218D03*
X170656250Y-81756250D03*
D11*
X165576250Y-81756250D03*
X175736250Y-81756250D03*
X222726250Y-81756250D03*
X232886250Y-81756250D03*
D10*
X227806250Y-81756250D03*
D11*
X39370000Y-62706250D03*
D10*
X44450000Y-62706250D03*
D11*
X49530000Y-62706250D03*
X271147750Y-43656218D03*
X260987750Y-43656218D03*
D10*
X266067750Y-43656218D03*
X115887500Y-100806250D03*
D11*
X120967500Y-100806250D03*
X110807500Y-100806250D03*
D10*
X220662500Y-100806218D03*
D11*
X215582500Y-100806218D03*
X225742500Y-100806218D03*
D15*
X248555750Y-37883718D03*
X242775750Y-37883718D03*
D16*
X249985750Y-34233718D03*
D17*
X249985750Y-38413718D03*
X241345750Y-38413718D03*
D16*
X241345750Y-34233718D03*
M02*
