M48
; DRILL file {KiCad (6.0.10-0)} date Saturday, October 07, 2023 at 02:40:13 PM
; FORMAT={-:-/ absolute / metric / decimal}
; #@! TF.CreationDate,2023-10-07T14:40:13-04:00
; #@! TF.GenerationSoftware,Kicad,Pcbnew,(6.0.10-0)
; #@! TF.FileFunction,Plated,1,2,PTH
FMAT,2
METRIC
; #@! TA.AperFunction,Plated,PTH,ViaDrill
T1C0.400
; #@! TA.AperFunction,Plated,PTH,ComponentDrill
T2C0.600
; #@! TA.AperFunction,Plated,PTH,ComponentDrill
T3C1.000
; #@! TA.AperFunction,Plated,PTH,ComponentDrill
T4C1.470
%
G90
G05
T1
X39.594Y-91.375
X117.475Y-90.693
X129.381Y-89.968
X169.069Y-88.106
X175.419Y-108.744
X186.531Y-94.456
X188.119Y-88.106
X205.581Y-94.456
X215.9Y-104.775
X226.219Y-93.662
X230.981Y-108.744
X234.891Y-65.146
X234.95Y-69.056
X234.95Y-104.775
X235.336Y-45.726
X235.744Y-38.894
X239.712Y-76.2
X240.495Y-41.372
X240.506Y-69.85
X240.608Y-40.379
X240.748Y-36.356
X241.3Y-47.625
X242.035Y-65.146
X243.681Y-34.925
X243.681Y-45.244
X244.475Y-69.85
X244.475Y-76.2
X244.499Y-42.891
X244.637Y-37.545
X245.269Y-36.512
X246.637Y-36.524
X246.794Y-86.519
X246.856Y-66.43
X246.856Y-88.106
X247.1Y-40.695
X247.65Y-34.925
X247.65Y-88.9
X248.444Y-72.231
X249.916Y-69.469
X250.348Y-36.356
X250.927Y-40.379
X251.619Y-84.931
X252.412Y-61.912
X252.412Y-66.256
X253.404Y-89.098
X254.0Y-65.881
X254.0Y-104.775
X254.794Y-38.894
X254.794Y-56.356
X254.794Y-58.737
X255.485Y-48.316
X256.381Y-88.225
X257.969Y-86.519
X257.969Y-91.281
X258.762Y-47.625
X258.762Y-83.344
X264.279Y-73.779
X265.906Y-68.263
X265.906Y-73.025
X266.7Y-78.581
X267.331Y-70.481
X268.287Y-62.706
X269.081Y-79.375
X269.875Y-64.294
X271.462Y-65.881
X271.462Y-72.231
X271.859Y-71.041
T3
X37.094Y-74.462
X37.094Y-88.962
X39.594Y-88.962
X42.094Y-74.462
X42.094Y-88.962
T4
X38.098Y-41.116
X40.64Y-60.166
X40.64Y-98.266
X44.448Y-38.576
X45.402Y-79.216
X46.99Y-57.626
X46.99Y-95.726
X51.752Y-76.676
X52.546Y-79.216
X56.778Y-41.116
X58.896Y-76.676
X62.071Y-60.166
X62.071Y-98.266
X63.128Y-38.576
X68.421Y-57.626
X68.421Y-95.726
X71.596Y-79.216
X75.458Y-41.116
X77.946Y-76.676
X81.121Y-60.166
X81.808Y-38.576
X83.502Y-98.266
X87.471Y-57.626
X89.852Y-95.726
X90.646Y-79.216
X94.138Y-41.116
X96.996Y-76.676
X100.171Y-60.166
X100.488Y-38.576
X106.521Y-57.626
X109.696Y-79.216
X112.078Y-98.266
X112.818Y-41.116
X116.046Y-76.676
X118.427Y-95.726
X119.168Y-38.576
X119.221Y-60.166
X125.571Y-57.626
X128.746Y-79.216
X131.498Y-41.116
X135.096Y-76.676
X137.848Y-38.576
X138.271Y-60.166
X144.621Y-57.626
X147.796Y-79.216
X150.177Y-98.266
X150.178Y-41.116
X154.146Y-76.676
X156.528Y-95.726
X156.528Y-38.576
X157.321Y-60.166
X163.671Y-57.626
X166.846Y-79.216
X168.858Y-41.116
X173.196Y-76.676
X175.208Y-38.576
X176.371Y-60.166
X182.721Y-57.626
X183.515Y-98.266
X185.896Y-79.216
X187.538Y-41.116
X188.278Y-98.266
X189.865Y-95.726
X192.246Y-76.676
X193.888Y-38.576
X194.627Y-95.726
X195.421Y-60.166
X201.771Y-57.626
X204.946Y-79.216
X204.946Y-98.266
X206.218Y-41.116
X211.296Y-76.676
X211.296Y-95.726
X212.568Y-38.576
X214.471Y-60.166
X216.852Y-98.266
X220.821Y-57.626
X223.202Y-95.726
X223.996Y-79.216
X223.996Y-98.266
X224.898Y-41.116
X230.346Y-76.676
X230.346Y-95.726
X231.248Y-38.576
X233.521Y-60.166
X238.284Y-98.266
X239.871Y-57.626
X243.046Y-79.216
X243.046Y-98.266
X244.634Y-95.726
X244.848Y-48.736
X249.396Y-76.676
X249.396Y-95.726
X251.198Y-46.196
X257.334Y-60.166
X259.715Y-98.266
X262.096Y-79.216
X262.096Y-98.266
X262.258Y-41.116
X263.684Y-57.626
X266.065Y-95.726
X268.446Y-76.676
X268.446Y-95.726
X268.608Y-38.576
T2
G00X241.346Y-33.934
M15
G01X241.346Y-34.534
M16
G05
G00X241.346Y-37.864
M15
G01X241.346Y-38.964
M16
G05
G00X249.986Y-33.934
M15
G01X249.986Y-34.534
M16
G05
G00X249.986Y-37.864
M15
G01X249.986Y-38.964
M16
G05
T0
M30
