M48
; DRILL file {KiCad (6.0.10-0)} date Saturday, October 07, 2023 at 02:40:13 PM
; FORMAT={-:-/ absolute / metric / decimal}
; #@! TF.CreationDate,2023-10-07T14:40:13-04:00
; #@! TF.GenerationSoftware,Kicad,Pcbnew,(6.0.10-0)
; #@! TF.FileFunction,NonPlated,1,2,NPTH
FMAT,2
METRIC
; #@! TA.AperFunction,NonPlated,NPTH,ComponentDrill
T1C0.650
; #@! TA.AperFunction,NonPlated,NPTH,ComponentDrill
T2C1.750
; #@! TA.AperFunction,NonPlated,NPTH,ComponentDrill
T3C3.048
; #@! TA.AperFunction,NonPlated,NPTH,ComponentDrill
T4C3.988
%
G90
G05
T1
X242.776Y-37.884
X248.556Y-37.884
T2
X36.828Y-43.656
X39.37Y-62.706
X39.37Y-100.806
X44.133Y-81.756
X46.988Y-43.656
X49.53Y-62.706
X49.53Y-100.806
X51.276Y-81.756
X54.292Y-81.756
X55.508Y-43.656
X60.801Y-62.706
X60.801Y-100.806
X61.436Y-81.756
X65.668Y-43.656
X70.326Y-81.756
X70.961Y-62.706
X70.961Y-100.806
X74.188Y-43.656
X79.851Y-62.706
X80.486Y-81.756
X82.233Y-100.806
X84.348Y-43.656
X89.376Y-81.756
X90.011Y-62.706
X92.392Y-100.806
X92.868Y-43.656
X98.901Y-62.706
X99.536Y-81.756
X103.028Y-43.656
X108.426Y-81.756
X109.061Y-62.706
X110.807Y-100.806
X111.548Y-43.656
X117.951Y-62.706
X118.586Y-81.756
X120.968Y-100.806
X121.708Y-43.656
X127.476Y-81.756
X128.111Y-62.706
X130.228Y-43.656
X137.001Y-62.706
X137.636Y-81.756
X140.388Y-43.656
X146.526Y-81.756
X147.161Y-62.706
X148.907Y-100.806
X148.908Y-43.656
X156.051Y-62.706
X156.686Y-81.756
X159.067Y-100.806
X159.068Y-43.656
X165.576Y-81.756
X166.211Y-62.706
X167.588Y-43.656
X175.101Y-62.706
X175.736Y-81.756
X177.748Y-43.656
X182.245Y-100.806
X184.626Y-81.756
X185.261Y-62.706
X186.268Y-43.656
X187.007Y-100.806
X192.405Y-100.806
X194.151Y-62.706
X194.786Y-81.756
X196.428Y-43.656
X197.167Y-100.806
X203.676Y-81.756
X203.676Y-100.806
X204.311Y-62.706
X204.948Y-43.656
X213.201Y-62.706
X213.836Y-81.756
X213.836Y-100.806
X215.108Y-43.656
X215.582Y-100.806
X222.726Y-81.756
X222.726Y-100.806
X223.361Y-62.706
X223.628Y-43.656
X225.742Y-100.806
X232.251Y-62.706
X232.886Y-81.756
X232.886Y-100.806
X233.788Y-43.656
X237.014Y-100.806
X241.776Y-81.756
X241.776Y-100.806
X242.308Y-43.656
X242.411Y-62.706
X247.174Y-100.806
X251.936Y-81.756
X251.936Y-100.806
X252.468Y-43.656
X256.064Y-62.706
X258.445Y-100.806
X260.826Y-81.756
X260.826Y-100.806
X260.988Y-43.656
X266.224Y-62.706
X268.605Y-100.806
X270.986Y-81.756
X270.986Y-100.806
X271.148Y-43.656
T3
X142.081Y-107.791
X165.894Y-107.791
T4
X41.908Y-43.656
X44.45Y-62.706
X44.45Y-100.806
X49.212Y-81.756
X56.356Y-81.756
X60.588Y-43.656
X65.881Y-62.706
X65.881Y-100.806
X75.406Y-81.756
X79.268Y-43.656
X84.931Y-62.706
X87.312Y-100.806
X94.456Y-81.756
X97.948Y-43.656
X103.981Y-62.706
X113.506Y-81.756
X115.887Y-100.806
X116.628Y-43.656
X123.031Y-62.706
X132.556Y-81.756
X135.308Y-43.656
X142.081Y-62.706
X142.081Y-92.551
X151.606Y-81.756
X153.987Y-100.806
X153.988Y-43.656
X161.131Y-62.706
X165.894Y-92.551
X170.656Y-81.756
X172.668Y-43.656
X180.181Y-62.706
X187.325Y-100.806
X189.706Y-81.756
X191.348Y-43.656
X192.087Y-100.806
X199.231Y-62.706
X208.756Y-81.756
X208.756Y-100.806
X210.028Y-43.656
X218.281Y-62.706
X220.662Y-100.806
X227.806Y-81.756
X227.806Y-100.806
X228.708Y-43.656
X237.331Y-62.706
X242.094Y-100.806
X246.856Y-81.756
X246.856Y-100.806
X247.388Y-43.656
X261.144Y-62.706
X263.525Y-100.806
X265.906Y-81.756
X265.906Y-100.806
X266.068Y-43.656
T0
M30
